# MagicaVoxel @ Ephtracy

# group
o 

# material
mtllib block5.mtl
usemtl palette

# normals
vn -1 0 0
vn 1 0 0
vn 0 0 1
vn 0 0 -1
vn 0 -1 0
vn 0 1 0

# texcoords
vt 0.919922 0.5
vt 0.939453 0.5
vt 0.943359 0.5
vt 0.947266 0.5

# verts
v -1.7 0 1.7
v -1.7 0 -1.7
v -1.7 0.2 1.5
v -1.7 0.2 -1.5
v -1.7 3.5 1.5
v -1.7 3.5 -1.5
v -1.7 3.7 1.7
v -1.7 3.7 -1.7
v -1.6 0.2 1.5
v -1.6 0.2 -1.5
v -1.6 3.5 1.5
v -1.6 3.5 -1.5
v 1.5 0 1.5
v 1.5 0 -1.5
v 1.5 0.1 1.5
v 1.5 0.1 -1.5
v 1.5 0.2 1.7
v 1.5 0.2 1.6
v 1.5 0.2 -1.6
v 1.5 0.2 -1.7
v 1.5 1.8 1.6
v 1.5 1.8 -1.6
v 1.5 3.5 1.7
v 1.5 3.5 1.6
v 1.5 3.5 -1.6
v 1.5 3.5 -1.7
v 1.5 3.6 1.5
v 1.5 3.6 -1.5
v 1.5 3.7 1.5
v 1.5 3.7 -1.5
v -1.5 0 1.5
v -1.5 0 -1.5
v -1.5 0.1 1.5
v -1.5 0.1 -1.5
v -1.5 0.2 1.7
v -1.5 0.2 1.6
v -1.5 0.2 -1.6
v -1.5 0.2 -1.7
v -1.5 1.8 1.6
v -1.5 1.8 -1.6
v -1.5 3.5 1.7
v -1.5 3.5 1.6
v -1.5 3.5 -1.6
v -1.5 3.5 -1.7
v -1.5 3.6 1.5
v -1.5 3.6 -1.5
v -1.5 3.7 1.5
v -1.5 3.7 -1.5
v 1.6 0.2 1.5
v 1.6 0.2 -1.5
v 1.6 3.5 1.5
v 1.6 3.5 -1.5
v 1.7 0 1.7
v 1.7 0 -1.7
v 1.7 0.2 1.5
v 1.7 0.2 -1.5
v 1.7 3.5 1.5
v 1.7 3.5 -1.5
v 1.7 3.7 1.7
v 1.7 3.7 -1.7
v -1.7 0 1.7
v -1.7 3.7 1.7
v -1.5 0.2 1.7
v -1.5 3.5 1.7
v 1.5 0.2 1.7
v 1.5 3.5 1.7
v 1.7 0 1.7
v 1.7 3.7 1.7
v -1.5 0.2 1.6
v -1.5 1.8 1.6
v -1.5 3.5 1.6
v 1.5 0.2 1.6
v 1.5 1.8 1.6
v 1.5 3.5 1.6
v -1.7 0.2 -1.5
v -1.7 3.5 -1.5
v -1.6 0.2 -1.5
v -1.6 3.5 -1.5
v -1.5 0 -1.5
v -1.5 0.1 -1.5
v -1.5 3.6 -1.5
v -1.5 3.7 -1.5
v 1.5 0 -1.5
v 1.5 0.1 -1.5
v 1.5 3.6 -1.5
v 1.5 3.7 -1.5
v 1.6 0.2 -1.5
v 1.6 3.5 -1.5
v 1.7 0.2 -1.5
v 1.7 3.5 -1.5
v -1.7 0.2 1.5
v -1.7 3.5 1.5
v -1.6 0.2 1.5
v -1.6 3.5 1.5
v -1.5 0 1.5
v -1.5 0.1 1.5
v -1.5 3.6 1.5
v -1.5 3.7 1.5
v 1.5 0 1.5
v 1.5 0.1 1.5
v 1.5 3.6 1.5
v 1.5 3.7 1.5
v 1.6 0.2 1.5
v 1.6 3.5 1.5
v 1.7 0.2 1.5
v 1.7 3.5 1.5
v -1.5 0.2 -1.6
v -1.5 1.8 -1.6
v -1.5 3.5 -1.6
v 1.5 0.2 -1.6
v 1.5 1.8 -1.6
v 1.5 3.5 -1.6
v -1.7 0 -1.7
v -1.7 3.7 -1.7
v -1.5 0.2 -1.7
v -1.5 3.5 -1.7
v 1.5 0.2 -1.7
v 1.5 3.5 -1.7
v 1.7 0 -1.7
v 1.7 3.7 -1.7
v -1.7 0 1.7
v 1.7 0 1.7
v -1.5 0 1.5
v 1.5 0 1.5
v -1.5 0 -1.5
v 1.5 0 -1.5
v -1.7 0 -1.7
v 1.7 0 -1.7
v -1.5 0.1 1.5
v 1.5 0.1 1.5
v -1.5 0.1 -1.5
v 1.5 0.1 -1.5
v -1.5 3.5 1.7
v 1.5 3.5 1.7
v -1.5 3.5 1.6
v 1.5 3.5 1.6
v -1.7 3.5 1.5
v -1.6 3.5 1.5
v 1.6 3.5 1.5
v 1.7 3.5 1.5
v -1.7 3.5 -1.5
v -1.6 3.5 -1.5
v 1.6 3.5 -1.5
v 1.7 3.5 -1.5
v -1.5 3.5 -1.6
v 1.5 3.5 -1.6
v -1.5 3.5 -1.7
v 1.5 3.5 -1.7
v -1.5 0.2 1.7
v 1.5 0.2 1.7
v -1.5 0.2 1.6
v 1.5 0.2 1.6
v -1.7 0.2 1.5
v -1.6 0.2 1.5
v 1.6 0.2 1.5
v 1.7 0.2 1.5
v -1.7 0.2 -1.5
v -1.6 0.2 -1.5
v 1.6 0.2 -1.5
v 1.7 0.2 -1.5
v -1.5 0.2 -1.6
v 1.5 0.2 -1.6
v -1.5 0.2 -1.7
v 1.5 0.2 -1.7
v -1.5 3.6 1.5
v 1.5 3.6 1.5
v -1.5 3.6 -1.5
v 1.5 3.6 -1.5
v -1.7 3.7 1.7
v 1.7 3.7 1.7
v -1.5 3.7 1.5
v 1.5 3.7 1.5
v -1.5 3.7 -1.5
v 1.5 3.7 -1.5
v -1.7 3.7 -1.7
v 1.7 3.7 -1.7

# faces
f 3/3/1 2/3/1 1/3/1
f 4/3/1 2/3/1 3/3/1
f 5/3/1 3/3/1 1/3/1
f 6/3/1 2/3/1 4/3/1
f 7/3/1 5/3/1 1/3/1
f 7/3/1 6/3/1 5/3/1
f 8/3/1 2/3/1 6/3/1
f 8/3/1 6/3/1 7/3/1
f 11/2/1 10/2/1 9/2/1
f 12/2/1 10/2/1 11/2/1
f 15/3/1 14/3/1 13/3/1
f 16/3/1 14/3/1 15/3/1
f 21/3/1 18/3/1 17/3/1
f 22/3/1 20/3/1 19/3/1
f 23/3/1 21/3/1 17/3/1
f 24/3/1 21/3/1 23/3/1
f 25/3/1 20/3/1 22/3/1
f 26/3/1 20/3/1 25/3/1
f 29/3/1 28/3/1 27/3/1
f 30/3/1 28/3/1 29/3/1
f 31/3/2 32/3/2 33/3/2
f 33/3/2 32/3/2 34/3/2
f 35/3/2 36/3/2 39/3/2
f 37/3/2 38/3/2 40/3/2
f 35/3/2 39/3/2 41/3/2
f 41/3/2 39/3/2 42/3/2
f 40/3/2 38/3/2 43/3/2
f 43/3/2 38/3/2 44/3/2
f 45/3/2 46/3/2 47/3/2
f 47/3/2 46/3/2 48/3/2
f 49/2/2 50/2/2 51/2/2
f 51/2/2 50/2/2 52/2/2
f 53/3/2 54/3/2 55/3/2
f 55/3/2 54/3/2 56/3/2
f 53/3/2 55/3/2 57/3/2
f 56/3/2 54/3/2 58/3/2
f 53/3/2 57/3/2 59/3/2
f 57/3/2 58/3/2 59/3/2
f 58/3/2 54/3/2 60/3/2
f 59/3/2 58/3/2 60/3/2
f 63/3/3 62/3/3 61/3/3
f 64/3/3 62/3/3 63/3/3
f 65/3/3 63/3/3 61/3/3
f 66/3/3 62/3/3 64/3/3
f 67/3/3 65/3/3 61/3/3
f 67/3/3 66/3/3 65/3/3
f 68/3/3 62/3/3 66/3/3
f 68/3/3 66/3/3 67/3/3
f 72/4/3 70/4/3 69/4/3
f 73/2/3 71/2/3 70/2/3
f 73/4/3 70/4/3 72/4/3
f 74/2/3 71/2/3 73/2/3
f 77/3/3 76/3/3 75/3/3
f 78/3/3 76/3/3 77/3/3
f 83/3/3 80/3/3 79/3/3
f 84/3/3 80/3/3 83/3/3
f 85/3/3 82/3/3 81/3/3
f 86/3/3 82/3/3 85/3/3
f 89/3/3 88/3/3 87/3/3
f 90/3/3 88/3/3 89/3/3
f 91/3/4 92/3/4 93/3/4
f 93/3/4 92/3/4 94/3/4
f 95/3/4 96/3/4 99/3/4
f 99/3/4 96/3/4 100/3/4
f 97/3/4 98/3/4 101/3/4
f 101/3/4 98/3/4 102/3/4
f 103/3/4 104/3/4 105/3/4
f 105/3/4 104/3/4 106/3/4
f 107/4/4 108/4/4 110/4/4
f 108/2/4 109/2/4 111/2/4
f 110/4/4 108/4/4 111/4/4
f 111/2/4 109/2/4 112/2/4
f 113/3/4 114/3/4 115/3/4
f 115/3/4 114/3/4 116/3/4
f 113/3/4 115/3/4 117/3/4
f 116/3/4 114/3/4 118/3/4
f 113/3/4 117/3/4 119/3/4
f 117/3/4 118/3/4 119/3/4
f 118/3/4 114/3/4 120/3/4
f 119/3/4 118/3/4 120/3/4
f 123/3/5 122/3/5 121/3/5
f 124/3/5 122/3/5 123/3/5
f 125/3/5 123/3/5 121/3/5
f 126/3/5 122/3/5 124/3/5
f 127/3/5 125/3/5 121/3/5
f 127/3/5 126/3/5 125/3/5
f 128/3/5 122/3/5 126/3/5
f 128/3/5 126/3/5 127/3/5
f 131/2/5 130/2/5 129/2/5
f 132/2/5 130/2/5 131/2/5
f 135/3/5 134/3/5 133/3/5
f 136/3/5 134/3/5 135/3/5
f 141/3/5 138/3/5 137/3/5
f 142/3/5 138/3/5 141/3/5
f 143/3/5 140/3/5 139/3/5
f 144/3/5 140/3/5 143/3/5
f 147/3/5 146/3/5 145/3/5
f 148/3/5 146/3/5 147/3/5
f 149/3/6 150/3/6 151/3/6
f 151/3/6 150/3/6 152/3/6
f 153/3/6 154/3/6 157/3/6
f 157/3/6 154/3/6 158/3/6
f 155/3/6 156/3/6 159/3/6
f 159/3/6 156/3/6 160/3/6
f 161/3/6 162/3/6 163/3/6
f 163/3/6 162/3/6 164/3/6
f 165/2/6 166/2/6 167/2/6
f 167/2/6 166/2/6 168/2/6
f 169/3/6 170/3/6 171/3/6
f 171/3/6 170/3/6 172/3/6
f 169/3/6 171/3/6 173/3/6
f 172/3/6 170/3/6 174/3/6
f 169/3/6 173/3/6 175/3/6
f 173/3/6 174/3/6 175/3/6
f 174/3/6 170/3/6 176/3/6
f 175/3/6 174/3/6 176/3/6
