# MagicaVoxel @ Ephtracy

# group
o 

# material
mtllib block4.mtl
usemtl palette

# normals
vn -1 0 0
vn 1 0 0
vn 0 0 1
vn 0 0 -1
vn 0 -1 0
vn 0 1 0

# texcoords
vt 0.919922 0.5
vt 0.939453 0.5
vt 0.943359 0.5
vt 0.947266 0.5
vt 0.951172 0.5
vt 0.955078 0.5

# verts
v -1.7 0.3 1.7
v -1.7 0.3 -1.7
v -1.7 0.5 1.5
v -1.7 0.5 -1.5
v -1.7 3.5 1.5
v -1.7 3.5 -1.5
v -1.7 3.7 1.7
v -1.7 3.7 -1.7
v -1.6 0.5 1.5
v -1.6 0.5 -1.5
v -1.6 3.5 1.5
v -1.6 3.5 -1.5
v -0.7 2.4 1.7
v -0.7 2.4 1.6
v -0.7 2.4 -1.6
v -0.7 2.4 -1.7
v -0.7 2.7 1.7
v -0.7 2.7 1.6
v -0.7 2.7 -1.6
v -0.7 2.7 -1.7
v -0.2 2 1.7
v -0.2 2 1.6
v -0.2 2 -1.6
v -0.2 2 -1.7
v -0.2 2.4 1.7
v -0.2 2.4 1.6
v -0.2 2.4 -1.6
v -0.2 2.4 -1.7
v -0.2 2.7 1.7
v -0.2 2.7 1.6
v -0.2 2.7 -1.6
v -0.2 2.7 -1.7
v -0.2 3.1 1.7
v -0.2 3.1 1.6
v -0.2 3.1 -1.6
v -0.2 3.1 -1.7
v 1.5 0.3 1.5
v 1.5 0.3 -1.5
v 1.5 0.4 1.5
v 1.5 0.4 -1.5
v 1.5 0.5 1.7
v 1.5 0.5 1.6
v 1.5 0.5 -1.6
v 1.5 0.5 -1.7
v 1.5 1.3 1.6
v 1.5 1.3 -1.6
v 1.5 1.5 1.6
v 1.5 1.5 -1.6
v 1.5 3.5 1.7
v 1.5 3.5 1.6
v 1.5 3.5 -1.6
v 1.5 3.5 -1.7
v 1.5 3.6 1.5
v 1.5 3.6 -1.5
v 1.5 3.7 1.5
v 1.5 3.7 -1.5
v -1.5 0.3 1.5
v -1.5 0.3 -1.5
v -1.5 0.4 1.5
v -1.5 0.4 -1.5
v -1.5 0.5 1.7
v -1.5 0.5 1.6
v -1.5 0.5 -1.6
v -1.5 0.5 -1.7
v -1.5 1.3 1.6
v -1.5 1.3 -1.6
v -1.5 1.5 1.6
v -1.5 1.5 -1.6
v -1.5 3.5 1.7
v -1.5 3.5 1.6
v -1.5 3.5 -1.6
v -1.5 3.5 -1.7
v -1.5 3.6 1.5
v -1.5 3.6 -1.5
v -1.5 3.7 1.5
v -1.5 3.7 -1.5
v 0.2 2 1.7
v 0.2 2 1.6
v 0.2 2 -1.6
v 0.2 2 -1.7
v 0.2 2.4 1.7
v 0.2 2.4 1.6
v 0.2 2.4 -1.6
v 0.2 2.4 -1.7
v 0.2 2.7 1.7
v 0.2 2.7 1.6
v 0.2 2.7 -1.6
v 0.2 2.7 -1.7
v 0.2 3.1 1.7
v 0.2 3.1 1.6
v 0.2 3.1 -1.6
v 0.2 3.1 -1.7
v 0.7 2.4 1.7
v 0.7 2.4 1.6
v 0.7 2.4 -1.6
v 0.7 2.4 -1.7
v 0.7 2.7 1.7
v 0.7 2.7 1.6
v 0.7 2.7 -1.6
v 0.7 2.7 -1.7
v 1.6 0.5 1.5
v 1.6 0.5 -1.5
v 1.6 3.5 1.5
v 1.6 3.5 -1.5
v 1.7 0.3 1.7
v 1.7 0.3 -1.7
v 1.7 0.5 1.5
v 1.7 0.5 -1.5
v 1.7 3.5 1.5
v 1.7 3.5 -1.5
v 1.7 3.7 1.7
v 1.7 3.7 -1.7
v -1.7 0.3 1.7
v -1.7 3.7 1.7
v -1.5 0.5 1.7
v -1.5 3.5 1.7
v -0.7 2.4 1.7
v -0.7 2.7 1.7
v -0.2 2 1.7
v -0.2 2.4 1.7
v -0.2 2.7 1.7
v -0.2 3.1 1.7
v 0.2 2 1.7
v 0.2 2.4 1.7
v 0.2 2.7 1.7
v 0.2 3.1 1.7
v 0.7 2.4 1.7
v 0.7 2.7 1.7
v 1.5 0.5 1.7
v 1.5 3.5 1.7
v 1.7 0.3 1.7
v 1.7 3.7 1.7
v -1.5 0.5 1.6
v -1.5 1.3 1.6
v -1.5 1.5 1.6
v -1.5 3.5 1.6
v -0.7 2.4 1.6
v -0.7 2.7 1.6
v -0.2 2 1.6
v -0.2 2.4 1.6
v -0.2 2.7 1.6
v -0.2 3.1 1.6
v 0.2 2 1.6
v 0.2 2.4 1.6
v 0.2 2.7 1.6
v 0.2 3.1 1.6
v 0.7 2.4 1.6
v 0.7 2.7 1.6
v 1.5 0.5 1.6
v 1.5 1.3 1.6
v 1.5 1.5 1.6
v 1.5 3.5 1.6
v -1.7 0.5 -1.5
v -1.7 3.5 -1.5
v -1.6 0.5 -1.5
v -1.6 3.5 -1.5
v -1.5 0.3 -1.5
v -1.5 0.4 -1.5
v -1.5 3.6 -1.5
v -1.5 3.7 -1.5
v 1.5 0.3 -1.5
v 1.5 0.4 -1.5
v 1.5 3.6 -1.5
v 1.5 3.7 -1.5
v 1.6 0.5 -1.5
v 1.6 3.5 -1.5
v 1.7 0.5 -1.5
v 1.7 3.5 -1.5
v -1.7 0.5 1.5
v -1.7 3.5 1.5
v -1.6 0.5 1.5
v -1.6 3.5 1.5
v -1.5 0.3 1.5
v -1.5 0.4 1.5
v -1.5 3.6 1.5
v -1.5 3.7 1.5
v 1.5 0.3 1.5
v 1.5 0.4 1.5
v 1.5 3.6 1.5
v 1.5 3.7 1.5
v 1.6 0.5 1.5
v 1.6 3.5 1.5
v 1.7 0.5 1.5
v 1.7 3.5 1.5
v -1.5 0.5 -1.6
v -1.5 1.3 -1.6
v -1.5 1.5 -1.6
v -1.5 3.5 -1.6
v -0.7 2.4 -1.6
v -0.7 2.7 -1.6
v -0.2 2 -1.6
v -0.2 2.4 -1.6
v -0.2 2.7 -1.6
v -0.2 3.1 -1.6
v 0.2 2 -1.6
v 0.2 2.4 -1.6
v 0.2 2.7 -1.6
v 0.2 3.1 -1.6
v 0.7 2.4 -1.6
v 0.7 2.7 -1.6
v 1.5 0.5 -1.6
v 1.5 1.3 -1.6
v 1.5 1.5 -1.6
v 1.5 3.5 -1.6
v -1.7 0.3 -1.7
v -1.7 3.7 -1.7
v -1.5 0.5 -1.7
v -1.5 3.5 -1.7
v -0.7 2.4 -1.7
v -0.7 2.7 -1.7
v -0.2 2 -1.7
v -0.2 2.4 -1.7
v -0.2 2.7 -1.7
v -0.2 3.1 -1.7
v 0.2 2 -1.7
v 0.2 2.4 -1.7
v 0.2 2.7 -1.7
v 0.2 3.1 -1.7
v 0.7 2.4 -1.7
v 0.7 2.7 -1.7
v 1.5 0.5 -1.7
v 1.5 3.5 -1.7
v 1.7 0.3 -1.7
v 1.7 3.7 -1.7
v -1.7 0.3 1.7
v 1.7 0.3 1.7
v -1.5 0.3 1.5
v 1.5 0.3 1.5
v -1.5 0.3 -1.5
v 1.5 0.3 -1.5
v -1.7 0.3 -1.7
v 1.7 0.3 -1.7
v -1.5 0.4 1.5
v 1.5 0.4 1.5
v -1.5 0.4 -1.5
v 1.5 0.4 -1.5
v -0.2 2 1.7
v 0.2 2 1.7
v -0.2 2 1.6
v 0.2 2 1.6
v -0.2 2 -1.6
v 0.2 2 -1.6
v -0.2 2 -1.7
v 0.2 2 -1.7
v -0.7 2.4 1.7
v -0.2 2.4 1.7
v 0.2 2.4 1.7
v 0.7 2.4 1.7
v -0.7 2.4 1.6
v -0.2 2.4 1.6
v 0.2 2.4 1.6
v 0.7 2.4 1.6
v -0.7 2.4 -1.6
v -0.2 2.4 -1.6
v 0.2 2.4 -1.6
v 0.7 2.4 -1.6
v -0.7 2.4 -1.7
v -0.2 2.4 -1.7
v 0.2 2.4 -1.7
v 0.7 2.4 -1.7
v -1.5 3.5 1.7
v 1.5 3.5 1.7
v -1.5 3.5 1.6
v 1.5 3.5 1.6
v -1.7 3.5 1.5
v -1.6 3.5 1.5
v 1.6 3.5 1.5
v 1.7 3.5 1.5
v -1.7 3.5 -1.5
v -1.6 3.5 -1.5
v 1.6 3.5 -1.5
v 1.7 3.5 -1.5
v -1.5 3.5 -1.6
v 1.5 3.5 -1.6
v -1.5 3.5 -1.7
v 1.5 3.5 -1.7
v -1.5 0.5 1.7
v 1.5 0.5 1.7
v -1.5 0.5 1.6
v 1.5 0.5 1.6
v -1.7 0.5 1.5
v -1.6 0.5 1.5
v 1.6 0.5 1.5
v 1.7 0.5 1.5
v -1.7 0.5 -1.5
v -1.6 0.5 -1.5
v 1.6 0.5 -1.5
v 1.7 0.5 -1.5
v -1.5 0.5 -1.6
v 1.5 0.5 -1.6
v -1.5 0.5 -1.7
v 1.5 0.5 -1.7
v -0.7 2.7 1.7
v -0.2 2.7 1.7
v 0.2 2.7 1.7
v 0.7 2.7 1.7
v -0.7 2.7 1.6
v -0.2 2.7 1.6
v 0.2 2.7 1.6
v 0.7 2.7 1.6
v -0.7 2.7 -1.6
v -0.2 2.7 -1.6
v 0.2 2.7 -1.6
v 0.7 2.7 -1.6
v -0.7 2.7 -1.7
v -0.2 2.7 -1.7
v 0.2 2.7 -1.7
v 0.7 2.7 -1.7
v -0.2 3.1 1.7
v 0.2 3.1 1.7
v -0.2 3.1 1.6
v 0.2 3.1 1.6
v -0.2 3.1 -1.6
v 0.2 3.1 -1.6
v -0.2 3.1 -1.7
v 0.2 3.1 -1.7
v -1.5 3.6 1.5
v 1.5 3.6 1.5
v -1.5 3.6 -1.5
v 1.5 3.6 -1.5
v -1.7 3.7 1.7
v 1.7 3.7 1.7
v -1.5 3.7 1.5
v 1.5 3.7 1.5
v -1.5 3.7 -1.5
v 1.5 3.7 -1.5
v -1.7 3.7 -1.7
v 1.7 3.7 -1.7

# faces
f 3/3/1 2/3/1 1/3/1
f 4/3/1 2/3/1 3/3/1
f 5/3/1 3/3/1 1/3/1
f 6/3/1 2/3/1 4/3/1
f 7/3/1 5/3/1 1/3/1
f 7/3/1 6/3/1 5/3/1
f 8/3/1 2/3/1 6/3/1
f 8/3/1 6/3/1 7/3/1
f 11/2/1 10/2/1 9/2/1
f 12/2/1 10/2/1 11/2/1
f 17/6/1 14/6/1 13/6/1
f 18/6/1 14/6/1 17/6/1
f 19/6/1 16/6/1 15/6/1
f 20/6/1 16/6/1 19/6/1
f 25/6/1 22/6/1 21/6/1
f 26/6/1 22/6/1 25/6/1
f 27/6/1 24/6/1 23/6/1
f 28/6/1 24/6/1 27/6/1
f 33/6/1 30/6/1 29/6/1
f 34/6/1 30/6/1 33/6/1
f 35/6/1 32/6/1 31/6/1
f 36/6/1 32/6/1 35/6/1
f 39/3/1 38/3/1 37/3/1
f 40/3/1 38/3/1 39/3/1
f 45/3/1 42/3/1 41/3/1
f 46/3/1 44/3/1 43/3/1
f 47/3/1 45/3/1 41/3/1
f 48/3/1 44/3/1 46/3/1
f 49/3/1 47/3/1 41/3/1
f 50/3/1 47/3/1 49/3/1
f 51/3/1 44/3/1 48/3/1
f 52/3/1 44/3/1 51/3/1
f 55/3/1 54/3/1 53/3/1
f 56/3/1 54/3/1 55/3/1
f 57/3/2 58/3/2 59/3/2
f 59/3/2 58/3/2 60/3/2
f 61/3/2 62/3/2 65/3/2
f 63/3/2 64/3/2 66/3/2
f 61/3/2 65/3/2 67/3/2
f 66/3/2 64/3/2 68/3/2
f 61/3/2 67/3/2 69/3/2
f 69/3/2 67/3/2 70/3/2
f 68/3/2 64/3/2 71/3/2
f 71/3/2 64/3/2 72/3/2
f 73/3/2 74/3/2 75/3/2
f 75/3/2 74/3/2 76/3/2
f 77/6/2 78/6/2 81/6/2
f 81/6/2 78/6/2 82/6/2
f 79/6/2 80/6/2 83/6/2
f 83/6/2 80/6/2 84/6/2
f 85/6/2 86/6/2 89/6/2
f 89/6/2 86/6/2 90/6/2
f 87/6/2 88/6/2 91/6/2
f 91/6/2 88/6/2 92/6/2
f 93/6/2 94/6/2 97/6/2
f 97/6/2 94/6/2 98/6/2
f 95/6/2 96/6/2 99/6/2
f 99/6/2 96/6/2 100/6/2
f 101/2/2 102/2/2 103/2/2
f 103/2/2 102/2/2 104/2/2
f 105/3/2 106/3/2 107/3/2
f 107/3/2 106/3/2 108/3/2
f 105/3/2 107/3/2 109/3/2
f 108/3/2 106/3/2 110/3/2
f 105/3/2 109/3/2 111/3/2
f 109/3/2 110/3/2 111/3/2
f 110/3/2 106/3/2 112/3/2
f 111/3/2 110/3/2 112/3/2
f 115/3/3 114/3/3 113/3/3
f 116/3/3 114/3/3 115/3/3
f 120/6/3 118/6/3 117/6/3
f 121/6/3 118/6/3 120/6/3
f 123/6/3 120/6/3 119/6/3
f 123/6/3 122/6/3 121/6/3
f 123/6/3 121/6/3 120/6/3
f 124/6/3 122/6/3 123/6/3
f 125/6/3 122/6/3 124/6/3
f 126/6/3 122/6/3 125/6/3
f 127/6/3 125/6/3 124/6/3
f 128/6/3 125/6/3 127/6/3
f 129/3/3 115/3/3 113/3/3
f 130/3/3 114/3/3 116/3/3
f 131/3/3 129/3/3 113/3/3
f 131/3/3 130/3/3 129/3/3
f 132/3/3 114/3/3 130/3/3
f 132/3/3 130/3/3 131/3/3
f 137/2/3 136/2/3 135/2/3
f 138/2/3 136/2/3 137/2/3
f 139/2/3 137/2/3 135/2/3
f 140/2/3 137/2/3 139/2/3
f 141/2/3 136/2/3 138/2/3
f 142/2/3 136/2/3 141/2/3
f 143/2/3 139/2/3 135/2/3
f 146/2/3 136/2/3 142/2/3
f 147/2/3 144/2/3 143/2/3
f 148/2/3 146/2/3 145/2/3
f 149/4/3 134/4/3 133/4/3
f 150/5/3 135/5/3 134/5/3
f 150/4/3 134/4/3 149/4/3
f 151/2/3 148/2/3 147/2/3
f 151/5/3 135/5/3 150/5/3
f 151/2/3 147/2/3 143/2/3
f 151/2/3 143/2/3 135/2/3
f 152/2/3 146/2/3 148/2/3
f 152/2/3 148/2/3 151/2/3
f 152/2/3 136/2/3 146/2/3
f 155/3/3 154/3/3 153/3/3
f 156/3/3 154/3/3 155/3/3
f 161/3/3 158/3/3 157/3/3
f 162/3/3 158/3/3 161/3/3
f 163/3/3 160/3/3 159/3/3
f 164/3/3 160/3/3 163/3/3
f 167/3/3 166/3/3 165/3/3
f 168/3/3 166/3/3 167/3/3
f 169/3/4 170/3/4 171/3/4
f 171/3/4 170/3/4 172/3/4
f 173/3/4 174/3/4 177/3/4
f 177/3/4 174/3/4 178/3/4
f 175/3/4 176/3/4 179/3/4
f 179/3/4 176/3/4 180/3/4
f 181/3/4 182/3/4 183/3/4
f 183/3/4 182/3/4 184/3/4
f 187/2/4 188/2/4 189/2/4
f 189/2/4 188/2/4 190/2/4
f 187/2/4 189/2/4 191/2/4
f 191/2/4 189/2/4 192/2/4
f 190/2/4 188/2/4 193/2/4
f 193/2/4 188/2/4 194/2/4
f 187/2/4 191/2/4 195/2/4
f 194/2/4 188/2/4 198/2/4
f 195/2/4 196/2/4 199/2/4
f 197/2/4 198/2/4 200/2/4
f 185/4/4 186/4/4 201/4/4
f 186/5/4 187/5/4 202/5/4
f 201/4/4 186/4/4 202/4/4
f 199/2/4 200/2/4 203/2/4
f 202/5/4 187/5/4 203/5/4
f 195/2/4 199/2/4 203/2/4
f 187/2/4 195/2/4 203/2/4
f 200/2/4 198/2/4 204/2/4
f 203/2/4 200/2/4 204/2/4
f 198/2/4 188/2/4 204/2/4
f 205/3/4 206/3/4 207/3/4
f 207/3/4 206/3/4 208/3/4
f 209/6/4 210/6/4 212/6/4
f 212/6/4 210/6/4 213/6/4
f 211/6/4 212/6/4 215/6/4
f 213/6/4 214/6/4 215/6/4
f 212/6/4 213/6/4 215/6/4
f 215/6/4 214/6/4 216/6/4
f 216/6/4 214/6/4 217/6/4
f 217/6/4 214/6/4 218/6/4
f 216/6/4 217/6/4 219/6/4
f 219/6/4 217/6/4 220/6/4
f 205/3/4 207/3/4 221/3/4
f 208/3/4 206/3/4 222/3/4
f 205/3/4 221/3/4 223/3/4
f 221/3/4 222/3/4 223/3/4
f 222/3/4 206/3/4 224/3/4
f 223/3/4 222/3/4 224/3/4
f 227/3/5 226/3/5 225/3/5
f 228/3/5 226/3/5 227/3/5
f 229/3/5 227/3/5 225/3/5
f 230/3/5 226/3/5 228/3/5
f 231/3/5 229/3/5 225/3/5
f 231/3/5 230/3/5 229/3/5
f 232/3/5 226/3/5 230/3/5
f 232/3/5 230/3/5 231/3/5
f 235/2/5 234/2/5 233/2/5
f 236/2/5 234/2/5 235/2/5
f 239/6/5 238/6/5 237/6/5
f 240/6/5 238/6/5 239/6/5
f 243/6/5 242/6/5 241/6/5
f 244/6/5 242/6/5 243/6/5
f 249/6/5 246/6/5 245/6/5
f 250/6/5 246/6/5 249/6/5
f 251/6/5 248/6/5 247/6/5
f 252/6/5 248/6/5 251/6/5
f 257/6/5 254/6/5 253/6/5
f 258/6/5 254/6/5 257/6/5
f 259/6/5 256/6/5 255/6/5
f 260/6/5 256/6/5 259/6/5
f 263/3/5 262/3/5 261/3/5
f 264/3/5 262/3/5 263/3/5
f 269/3/5 266/3/5 265/3/5
f 270/3/5 266/3/5 269/3/5
f 271/3/5 268/3/5 267/3/5
f 272/3/5 268/3/5 271/3/5
f 275/3/5 274/3/5 273/3/5
f 276/3/5 274/3/5 275/3/5
f 277/3/6 278/3/6 279/3/6
f 279/3/6 278/3/6 280/3/6
f 281/3/6 282/3/6 285/3/6
f 285/3/6 282/3/6 286/3/6
f 283/3/6 284/3/6 287/3/6
f 287/3/6 284/3/6 288/3/6
f 289/3/6 290/3/6 291/3/6
f 291/3/6 290/3/6 292/3/6
f 293/6/6 294/6/6 297/6/6
f 297/6/6 294/6/6 298/6/6
f 295/6/6 296/6/6 299/6/6
f 299/6/6 296/6/6 300/6/6
f 301/6/6 302/6/6 305/6/6
f 305/6/6 302/6/6 306/6/6
f 303/6/6 304/6/6 307/6/6
f 307/6/6 304/6/6 308/6/6
f 309/6/6 310/6/6 311/6/6
f 311/6/6 310/6/6 312/6/6
f 313/6/6 314/6/6 315/6/6
f 315/6/6 314/6/6 316/6/6
f 317/2/6 318/2/6 319/2/6
f 319/2/6 318/2/6 320/2/6
f 321/3/6 322/3/6 323/3/6
f 323/3/6 322/3/6 324/3/6
f 321/3/6 323/3/6 325/3/6
f 324/3/6 322/3/6 326/3/6
f 321/3/6 325/3/6 327/3/6
f 325/3/6 326/3/6 327/3/6
f 326/3/6 322/3/6 328/3/6
f 327/3/6 326/3/6 328/3/6
