# Blender v2.83.0 OBJ File: ''
# www.blender.org
mtllib racket.mtl
o ObjObject
v -1.600000 -5.450001 1.500000
v -1.600000 -5.550000 -1.600000
v -1.600000 -5.550001 1.600000
v -1.600000 -5.450000 -1.500000
v -1.600000 5.449999 1.500002
v -1.600000 5.450000 -1.499998
v -1.600000 5.550000 1.600002
v -1.600000 5.550001 -1.599998
v 1.600000 -5.550001 1.600000
v 1.600000 -5.550000 -1.600000
v 1.600000 -5.450001 1.500000
v 1.600000 -5.450000 -1.500000
v 1.600000 5.449999 1.500002
v 1.600000 5.450000 -1.499998
v 1.600000 5.550000 1.600002
v 1.600000 5.550001 -1.599998
v -1.400000 -5.450001 1.600000
v -1.600000 5.550000 1.600002
v -1.600000 -5.550001 1.600000
v -1.400000 5.449999 1.600002
v 1.400000 -5.450001 1.600000
v 1.400000 5.449999 1.600002
v 1.600000 -5.550001 1.600000
v 1.600000 5.550000 1.600002
v -1.600000 -5.550000 -1.600000
v -1.600000 5.550001 -1.599998
v -1.400000 -5.450000 -1.600000
v -1.400000 5.450000 -1.599998
v 1.400000 -5.450000 -1.600000
v 1.400000 5.450000 -1.599998
v 1.600000 -5.550000 -1.600000
v 1.600000 5.550001 -1.599998
v -1.600000 -5.550000 -1.600000
v 1.600000 -5.550001 1.600000
v -1.600000 -5.550001 1.600000
v 1.600000 -5.550000 -1.600000
v -1.600000 5.550000 1.600002
v 1.600000 5.550000 1.600002
v -1.600000 5.550001 -1.599998
v 1.600000 5.550001 -1.599998
vt 0.962891 0.500000
vt 0.962891 0.500000
vt 0.962891 0.500000
vt 0.962891 0.500000
vt 0.962891 0.500000
vt 0.966797 0.500000
vt 0.966797 0.500000
vt 0.966797 0.500000
vt 0.962891 0.500000
vt 0.966797 0.500000
vt 0.962891 0.500000
vt 0.962891 0.500000
vt 0.962891 0.500000
vt 0.962891 0.500000
vt 0.962891 0.500000
vt 0.962891 0.500000
vt 0.962891 0.500000
vt 0.966797 0.500000
vt 0.966797 0.500000
vt 0.966797 0.500000
vt 0.962891 0.500000
vt 0.966797 0.500000
vt 0.962891 0.500000
vt 0.962891 0.500000
vt 0.962891 0.500000
vt 0.962891 0.500000
vt 0.962891 0.500000
vt 0.962891 0.500000
vt 0.962891 0.500000
vt 0.966797 0.500000
vt 0.966797 0.500000
vt 0.966797 0.500000
vt 0.962891 0.500000
vt 0.966797 0.500000
vt 0.962891 0.500000
vt 0.962891 0.500000
vt 0.962891 0.500000
vt 0.962891 0.500000
vt 0.962891 0.500000
vt 0.962891 0.500000
vt 0.962891 0.500000
vt 0.966797 0.500000
vt 0.966797 0.500000
vt 0.966797 0.500000
vt 0.962891 0.500000
vt 0.966797 0.500000
vt 0.962891 0.500000
vt 0.962891 0.500000
vt 0.962891 0.500000
vt 0.962891 0.500000
vt 0.962891 0.500000
vt 0.962891 0.500000
vt 0.962891 0.500000
vt 0.962891 0.500000
vt 0.962891 0.500000
vt 0.962891 0.500000
vn -1.0000 0.0000 0.0000
vn 1.0000 -0.0000 0.0000
vn 0.0000 -0.0000 1.0000
vn 0.0000 0.0000 -1.0000
vn 0.0000 -1.0000 -0.0000
vn 0.0000 1.0000 0.0000
usemtl palette
s 1
f 1/1/1 2/2/1 3/3/1
f 4/4/1 2/2/1 1/1/1
f 5/5/1 1/1/1 3/3/1
f 5/6/1 4/7/1 1/8/1
f 6/9/1 2/2/1 4/4/1
f 6/10/1 4/7/1 5/6/1
f 7/11/1 5/5/1 3/3/1
f 7/11/1 6/9/1 5/5/1
f 8/12/1 2/2/1 6/9/1
f 8/12/1 6/9/1 7/11/1
f 9/13/2 10/14/2 11/15/2
f 11/15/2 10/14/2 12/16/2
f 9/13/2 11/15/2 13/17/2
f 11/18/2 12/19/2 13/20/2
f 12/16/2 10/14/2 14/21/2
f 13/20/2 12/19/2 14/22/2
f 9/13/2 13/17/2 15/23/2
f 13/17/2 14/21/2 15/23/2
f 14/21/2 10/14/2 16/24/2
f 15/23/2 14/21/2 16/24/2
f 17/25/3 18/26/3 19/27/3
f 20/28/3 18/26/3 17/25/3
f 21/29/3 17/25/3 19/27/3
f 21/30/3 20/31/3 17/32/3
f 22/33/3 18/26/3 20/28/3
f 22/34/3 20/31/3 21/30/3
f 23/35/3 21/29/3 19/27/3
f 23/35/3 22/33/3 21/29/3
f 24/36/3 18/26/3 22/33/3
f 24/36/3 22/33/3 23/35/3
f 25/37/4 26/38/4 27/39/4
f 27/39/4 26/38/4 28/40/4
f 25/37/4 27/39/4 29/41/4
f 27/42/4 28/43/4 29/44/4
f 28/40/4 26/38/4 30/45/4
f 29/44/4 28/43/4 30/46/4
f 25/37/4 29/41/4 31/47/4
f 29/41/4 30/45/4 31/47/4
f 30/45/4 26/38/4 32/48/4
f 31/47/4 30/45/4 32/48/4
f 33/49/5 34/50/5 35/51/5
f 36/52/5 34/50/5 33/49/5
f 37/53/6 38/54/6 39/55/6
f 39/55/6 38/54/6 40/56/6
